<?xml version="1.0" encoding="UTF-8"?>
<svg version="1.1" xmlns="http://www.w3.org/2000/svg" width="512" height="512">
<path d="M0 0 C1.43839906 -0.00115569 2.87679782 -0.00274619 4.31519598 -0.00472724 C8.22203301 -0.00885909 12.12884526 -0.00685803 16.03568232 -0.00374103 C20.26681147 -0.00146185 24.49793661 -0.00497897 28.72906494 -0.00772095 C36.99951633 -0.01215072 45.26995861 -0.01121467 53.54041035 -0.00830831 C60.26571497 -0.00604342 66.99101705 -0.00574644 73.71632195 -0.00683212 C74.67607319 -0.00698536 75.63582443 -0.00713859 76.62465904 -0.00729647 C78.57479179 -0.00761621 80.52492455 -0.00794043 82.4750573 -0.00826906 C100.73006014 -0.01111563 118.98505795 -0.00784966 137.24005996 -0.00246869 C152.88175779 0.00199931 168.52344819 0.00122185 184.16514587 -0.00338745 C202.3595358 -0.00874652 220.55392133 -0.01084177 238.74831194 -0.00777519 C240.69068205 -0.00745666 242.63305217 -0.00714229 244.57542229 -0.00683212 C246.00869567 -0.00660071 246.00869567 -0.00660071 247.47092407 -0.00636462 C254.18363086 -0.00550352 260.89633485 -0.00695356 267.60904121 -0.00931168 C275.79594112 -0.01212464 283.98283144 -0.01133988 292.16973025 -0.00603093 C296.34159819 -0.00341419 300.51345019 -0.00235429 304.68531799 -0.00568008 C308.51275458 -0.00868502 312.34016062 -0.00698119 316.16759448 -0.00170253 C318.18956751 -0.00007667 320.2115427 -0.00329827 322.23351341 -0.00675976 C342.89835027 0.03702206 359.65833071 2.51322796 377.07896423 14.12698364 C377.07896423 14.78698364 377.07896423 15.44698364 377.07896423 16.12698364 C378.06896423 16.12698364 379.05896423 16.12698364 380.07896423 16.12698364 C380.07896423 16.78698364 380.07896423 17.44698364 380.07896423 18.12698364 C380.94521423 18.49823364 380.94521423 18.49823364 381.82896423 18.87698364 C384.40836403 20.30998353 386.14018015 21.91123041 388.07896423 24.12698364 C388.07896423 24.78698364 388.07896423 25.44698364 388.07896423 26.12698364 C389.06896423 26.45698364 390.05896423 26.78698364 391.07896423 27.12698364 C392.83910984 29.47185558 394.41330496 31.76835694 395.95396423 34.25198364 C396.3979657 34.96539917 396.84196716 35.6788147 397.29942322 36.41384888 C403.82651858 47.29154258 407.19941546 58.89713985 407.20759869 71.64231491 C407.21082313 72.91742455 407.21404758 74.19253419 407.21736974 75.50628352 C407.21589882 76.90871996 407.21433112 78.3111563 407.212677 79.71359253 C407.21454633 81.21322221 407.21684752 82.7128514 407.21954232 84.21247983 C407.22565169 88.32560608 407.22552775 92.43871198 407.22434795 96.55184174 C407.22414372 100.99096489 407.2296648 105.43008154 407.23440552 109.86920166 C407.24270797 118.56352544 407.24546018 127.25784245 407.2460179 135.95216987 C407.24649326 143.02046459 407.24854904 150.08875707 407.25171852 157.15705109 C407.2605241 177.20283323 407.26513806 197.24861002 407.26438805 217.29439411 C407.26432811 218.91502202 407.26432811 218.91502202 407.26426697 220.56838989 C407.26422609 221.65012974 407.26418521 222.7318696 407.26414309 223.84638944 C407.26373667 241.37574218 407.27330525 258.90507343 407.28740533 276.43441996 C407.3017734 294.43918379 407.30867528 312.44393715 407.30781156 330.44870687 C407.30747973 340.55467845 407.31022057 350.66062751 407.32098961 360.76659393 C407.33010027 369.37136091 407.33226521 377.97609516 407.32548019 386.58086488 C407.32221781 390.96902658 407.32214809 395.35712551 407.33083344 399.74528122 C407.33871185 403.7672017 407.33725333 407.78900975 407.3285493 411.81092754 C407.32701727 413.26110681 407.32881925 414.71129452 407.33440938 416.16146383 C407.40218369 435.00020671 403.37976018 453.87613084 390.07896423 468.12698364 C389.41896423 468.12698364 388.75896423 468.12698364 388.07896423 468.12698364 C387.77152283 469.20979614 387.77152283 469.20979614 387.45787048 470.31448364 C385.69427424 473.91162046 383.17697264 475.8189484 380.01646423 478.12698364 C379.42647644 478.56486206 378.83648865 479.00274048 378.22862244 479.45388794 C371.20245598 484.59440111 364.52244206 488.1606466 356.20396423 490.87698364 C355.56805359 491.08814819 354.93214294 491.29931274 354.27696228 491.51687622 C343.94225468 494.68348161 332.99816288 494.27370443 322.29727173 494.26069641 C320.8252015 494.262568 319.35313176 494.26487008 317.88106281 494.26756173 C313.86257665 494.27364303 309.84411142 494.2735505 305.82562172 494.27236736 C301.48126352 494.27216242 297.13691187 494.2776909 292.79255676 494.28242493 C284.29161912 494.29071153 275.79068842 494.29347885 267.28974708 494.2940373 C260.37698953 494.29451335 253.46423426 494.29657249 246.55147743 494.29973793 C226.93188755 494.30853855 207.31230313 494.31315816 187.69271126 494.31240746 C186.6362514 494.3123675 185.57979154 494.31232754 184.49131775 494.31228638 C182.90468283 494.31222506 182.90468283 494.31222506 181.28599469 494.3121625 C164.14368106 494.31175604 147.0013894 494.32132696 129.85908213 494.33542474 C112.23725134 494.34980202 94.61543126 494.3566942 76.99359447 494.35583097 C67.1083574 494.3554995 57.22314337 494.35822471 47.33791161 494.36900902 C38.92217181 494.37813174 30.50646549 494.38027467 22.09072288 494.37349959 C17.8013992 494.37024353 13.5121397 494.3701446 9.22282219 494.37885284 C5.28787346 494.38675916 1.35303938 494.38524464 -2.5819067 494.37656871 C-3.99702676 494.37504278 -5.41215555 494.37681521 -6.8272653 494.38242879 C-28.50760574 494.46266073 -49.48636442 490.36807551 -65.92103577 475.12698364 C-65.92103577 474.46698364 -65.92103577 473.80698364 -65.92103577 473.12698364 C-66.58103577 473.12698364 -67.24103577 473.12698364 -67.92103577 473.12698364 C-85.28820433 455.15850782 -90.25387007 434.48586133 -90.18173218 410.19416809 C-90.18475982 408.73004536 -90.18865235 407.2659242 -90.19332474 405.80180579 C-90.20353454 401.81448071 -90.20144101 397.82724624 -90.19714415 393.83991396 C-90.19466406 389.52553967 -90.20370693 385.21118648 -90.21118164 380.89682007 C-90.22389522 372.45831093 -90.22572651 364.01983366 -90.22338138 355.58131655 C-90.2215943 348.71820191 -90.22335619 341.8550969 -90.22760582 334.99198341 C-90.22820101 334.01311111 -90.2287962 333.0342388 -90.22940942 332.0257037 C-90.23062125 330.03676034 -90.23183538 328.04781699 -90.2330518 326.05887363 C-90.24391448 307.42945426 -90.24177088 288.80005302 -90.23566695 270.17063264 C-90.23049901 253.15264787 -90.24175229 236.13472037 -90.26076517 219.11674692 C-90.28016805 201.61462063 -90.28839527 184.1125214 -90.28464192 166.61038429 C-90.28273359 156.7955266 -90.28518152 146.98071764 -90.29935646 137.16586876 C-90.3113025 128.81023939 -90.31263913 120.45468875 -90.30056629 112.09905823 C-90.29470016 107.84184938 -90.29351496 103.58478428 -90.3055687 99.32758522 C-90.31650417 95.41969881 -90.31323437 91.51207487 -90.29930701 87.60420034 C-90.29668098 86.20121807 -90.29895959 84.79821471 -90.30704287 83.39525326 C-90.36132289 73.25922462 -89.05767072 63.99664461 -86.92103577 54.12698364 C-86.72904502 53.19773235 -86.53705427 52.26848105 -86.33924562 51.31107062 C-83.38378919 37.88306641 -72.45584622 24.07990699 -61.60853577 16.00198364 C-61.03659485 15.57312866 -60.46465393 15.14427368 -59.87538147 14.7024231 C-41.44684785 1.0851651 -22.18707118 -0.03804804 0 0 Z " fill="#131721" transform="translate(96.92103576660156,8.873016357421875)"/>
<path d="M0 0 C10.89 0 21.78 0 33 0 C35.6804793 5.36095859 38.004505 10.41206428 40 16 C40.4662144 17.25615232 40.93500914 18.51134968 41.40625 19.765625 C41.66801025 20.46236328 41.92977051 21.15910156 42.19946289 21.87695312 C42.95179773 23.87216623 43.70763893 25.8660059 44.46484375 27.859375 C44.95611606 29.15610349 45.44699306 30.45298181 45.9375 31.75 C46.19909912 32.44101807 46.46069824 33.13203613 46.73022461 33.84399414 C48.29400529 38.00974416 49.72529719 42.19215285 51.0625 46.4375 C52.50737533 50.89203265 54.40204971 54.64322168 56.77734375 58.66015625 C58.6725399 62.28706518 59.80338047 66.11293339 61.02734375 70.0078125 C61.94708858 72.83722833 62.99239477 75.56248434 64.125 78.3125 C65.23394343 81.01421159 66.15327588 83.55179316 66.9375 86.375 C68.22399682 90.76422443 69.98133406 94.86464051 71.76953125 99.0703125 C72.77734459 101.46986806 73.72708128 103.87054116 74.625 106.3125 C75.72716405 109.2683036 76.92661926 112.14173165 78.1875 115.03125 C79.56599823 118.37145725 80.7474733 121.7834484 81.96875 125.18359375 C83.21903931 128.59820964 84.56940234 131.96558224 85.93359375 135.3359375 C87.59007245 139.4741004 89.17186882 143.64056044 90.76171875 147.8046875 C92.21474534 151.55413782 93.74286456 155.26958288 95.30078125 158.9765625 C96 161 96 161 96 164 C84.78 164 73.56 164 62 164 C60.35 159.05 58.7 154.1 57 149 C55.52355979 145.20962197 55.52355979 145.20962197 53.9921875 141.44140625 C52.58929012 137.98939498 51.30835317 134.48894179 50 131 C32.84 130.67 15.68 130.34 -2 130 C1.375 117.625 1.375 117.625 3 113 C3.66 113 4.32 113 5 113 C5.19335938 112.16855469 5.38671875 111.33710938 5.5859375 110.48046875 C5.97652344 108.85044922 5.97652344 108.85044922 6.375 107.1875 C6.75785156 105.56908203 6.75785156 105.56908203 7.1484375 103.91796875 C8 101 8 101 10 98 C12.70556641 97.65942383 12.70556641 97.65942383 16.1015625 97.70703125 C17.31328125 97.71669922 18.525 97.72636719 19.7734375 97.73632812 C21.67996094 97.7740332 21.67996094 97.7740332 23.625 97.8125 C24.90375 97.82603516 26.1825 97.83957031 27.5 97.85351562 C30.66708282 97.88896804 33.83333541 97.93838559 37 98 C36.69827881 97.227771 36.39655762 96.45554199 36.08569336 95.65991211 C32.90529612 87.50187493 29.90287163 79.2848437 26.94335938 71.04443359 C23.89133016 62.58434263 20.58596261 54.247714 17 46 C13.16009823 53.46939796 10.19709633 61.32893647 7.4375 69.25 C5.85723871 73.76290921 4.11642754 77.95772871 1.890625 82.1796875 C0.62112016 84.77437722 -0.22007403 87.44998838 -1.09375 90.19921875 C-5.09550795 102.5667207 -9.42756952 114.98755712 -14.6875 126.875 C-16.09246673 130.03327193 -16.09246673 130.03327193 -17 133.625 C-18 137 -18 137 -19.44140625 139.35546875 C-21.06068197 142.10296163 -21.99180286 144.64746929 -22.9375 147.6875 C-24.69171345 153.29946425 -26.78943622 158.47359055 -29 164 C-40.22 164 -51.44 164 -63 164 C-62.26853502 160.34267509 -61.56983524 157.63645969 -60.1875 154.27734375 C-59.83429688 153.40916016 -59.48109375 152.54097656 -59.1171875 151.64648438 C-58.74851562 150.75251953 -58.37984375 149.85855469 -58 148.9375 C-57.26844268 147.15592771 -56.53918654 145.37340834 -55.8125 143.58984375 C-55.32716797 142.41216431 -55.32716797 142.41216431 -54.83203125 141.21069336 C-54.05788231 139.15379233 -53.48345598 137.14167338 -53 135 C-52.34 135 -51.68 135 -51 135 C-50.9175 133.865625 -50.835 132.73125 -50.75 131.5625 C-50.2369966 127.52171981 -48.97387776 124.3898518 -47.234375 120.734375 C-45.68299296 117.29776923 -44.3695487 113.78448969 -43.0625 110.25 C-42.54558894 108.85546281 -42.02866187 107.46093155 -41.51171875 106.06640625 C-41.25825684 105.3820752 -41.00479492 104.69774414 -40.74365234 103.99267578 C-39.64482375 101.04827691 -38.51019117 98.11803967 -37.375 95.1875 C-35.17265517 89.48563637 -33.06381711 83.75332256 -31 78 C-30.34 78 -29.68 78 -29 78 C-28.76216797 77.01773438 -28.76216797 77.01773438 -28.51953125 76.015625 C-27.20723634 70.88244934 -25.68184633 66.04760593 -23.5625 61.1875 C-21.14243487 55.62062346 -19.5023018 50.0023154 -17.9921875 44.12890625 C-17.0055747 41.01758005 -15.67613836 38.78238968 -14 36 C-12.92940798 33.35030286 -12.03150411 30.64703079 -11.125 27.9375 C-8.68518921 20.83251455 -5.99009076 13.89409631 -3 7 C-2.01 4.69 -1.02 2.38 0 0 Z " fill="#FAFAFA" transform="translate(322,174)"/>
<path d="M0 0 C11.22 0 22.44 0 34 0 C39.59808612 12.31578947 39.59808612 12.31578947 41.125 17.6875 C42.56154877 22.55802991 44.14638616 27.27627441 46 32 C46.39316406 33.03253906 46.78632813 34.06507813 47.19140625 35.12890625 C48.91775628 39.65864261 50.64351061 44.17294461 52.5625 48.625 C53.73868672 51.38648186 54.77263371 54.12665046 55.7734375 56.953125 C58.37721365 64.15288403 61.38073568 71.17172934 64.37695312 78.21484375 C66.58059267 83.44052171 68.63218011 88.64687147 70.36694336 94.046875 C71.23201983 96.71583441 72.23169729 99.32361734 73.25 101.9375 C73.67152344 103.02675781 74.09304687 104.11601562 74.52734375 105.23828125 C75.63317523 108.07356825 76.75481217 110.90237728 77.87890625 113.73046875 C78.19891602 114.5407251 78.51892578 115.35098145 78.84863281 116.18579102 C79.48289766 117.79089235 80.12145752 119.39430423 80.76464844 120.99584961 C81.05500977 121.73198486 81.34537109 122.46812012 81.64453125 123.2265625 C82.03668823 124.21003662 82.03668823 124.21003662 82.43676758 125.21337891 C83 127 83 127 83 130 C83.66 130 84.32 130 85 130 C87.67672943 137.39232935 90.30443641 144.79863866 92.8125 152.25 C93.23144531 153.49265625 93.65039062 154.7353125 94.08203125 156.015625 C95 159 95 159 95 161 C95.66 161 96.32 161 97 161 C97 161.99 97 162.98 97 164 C85.78 164 74.56 164 63 164 C61.515 160.04 61.515 160.04 60 156 C59.19789103 154.07896159 58.3861331 152.16190896 57.5625 150.25 C51 134.61931818 51 134.61931818 51 130 C33.84 130 16.68 130 -1 130 C-0.17410421 125.04462528 1.0151258 120.87054508 2.8125 116.25 C3.06064453 115.59773438 3.30878906 114.94546875 3.56445312 114.2734375 C5.64790485 108.82359432 7.83284485 103.41788788 10 98 C18.91 98 27.82 98 37 98 C34.65470857 90.06446985 34.65470857 90.06446985 31.875 82.375 C28.87330058 74.71928955 25.99963837 67.01726627 23.12255859 59.31396484 C22.74824707 58.31316895 22.37393555 57.31237305 21.98828125 56.28125 C21.65352783 55.38470703 21.31877441 54.48816406 20.97387695 53.56445312 C20.01164106 51.03065371 19.01433014 48.51334438 18 46 C14.84397655 47.57801172 14.43249468 50.7706955 13.3125 53.9375 C12.77726442 55.4106011 12.24075941 56.88324145 11.703125 58.35546875 C11.28450195 59.50668213 11.28450195 59.50668213 10.85742188 60.68115234 C9.4845678 64.39395645 8.0182146 68.06909834 6.5625 71.75 C3.66919184 79.10382491 1.01421826 86.52609645 -1.51538086 94.01269531 C-3.14487278 98.77968464 -4.99219333 103.36700111 -7.07836914 107.95239258 C-8.27877211 110.61935408 -9.33733553 113.3285117 -10.375 116.0625 C-10.79265625 117.15949219 -11.2103125 118.25648438 -11.640625 119.38671875 C-12.61300923 121.97136075 -13.58204087 124.55707596 -14.546875 127.14453125 C-14.80936035 127.84763428 -15.0718457 128.5507373 -15.34228516 129.27514648 C-15.84903331 130.63464144 -16.35403144 131.99479054 -16.85693359 133.35571289 C-18.03603426 136.52540343 -19.26633953 139.65823042 -20.6171875 142.7578125 C-22.07661944 145.99318228 -22.07661944 145.99318228 -23 149.5 C-23.73336643 152.06678251 -24.49626063 154.27172095 -25.5625 156.6875 C-27.12759875 160.04652676 -27.12759875 160.04652676 -28 164 C-39.22 164 -50.44 164 -62 164 C-61.1138191 159.56909551 -59.89228006 155.44588981 -58.4375 151.1875 C-58.20353516 150.49462891 -57.96957031 149.80175781 -57.72851562 149.08789062 C-57.15508324 147.39099886 -56.57791831 145.69536922 -56 144 C-55.34 144 -54.68 144 -54 144 C-53.80639893 142.93458984 -53.80639893 142.93458984 -53.60888672 141.84765625 C-52.52482811 136.77770454 -50.76109009 131.91413438 -49.125 127 C-48.59712891 125.37964844 -48.59712891 125.37964844 -48.05859375 123.7265625 C-47.71183594 122.68242187 -47.36507812 121.63828125 -47.0078125 120.5625 C-46.69473145 119.61503906 -46.38165039 118.66757812 -46.05908203 117.69140625 C-44.96266337 114.90511779 -43.54085252 112.56157654 -42 110 C-41.26942158 108.17927844 -40.58985099 106.3374316 -39.95703125 104.48046875 C-39.60576172 103.45888672 -39.25449219 102.43730469 -38.89257812 101.38476562 C-38.35793945 99.80211914 -38.35793945 99.80211914 -37.8125 98.1875 C-37.44447266 97.11306641 -37.07644531 96.03863281 -36.69726562 94.93164062 C-35.79305304 92.28946098 -34.89415623 89.64559628 -34 87 C-33.34 87 -32.68 87 -32 87 C-31.82984375 86.34515625 -31.6596875 85.6903125 -31.484375 85.015625 C-26.61390989 66.67366067 -26.61390989 66.67366067 -22 59 C-21.36320236 57.31086729 -20.78299799 55.59970105 -20.25 53.875 C-18.39966693 48.10716489 -16.35473914 42.42856505 -14.25 36.75 C-13.93192383 35.89132324 -13.61384766 35.03264648 -13.28613281 34.14794922 C-12.52557115 32.09808211 -11.76300187 30.04896007 -11 28 C-10.34 28 -9.68 28 -9 28 C-8.91363281 27.44054687 -8.82726562 26.88109375 -8.73828125 26.3046875 C-7.13310882 17.14489619 -4.15840885 8.3168177 0 0 Z " fill="#FAFAFA" transform="translate(157,174)"/>
<path d="M0 0 C1.125 3.75 1.125 3.75 0 6 C10.56 6 21.12 6 32 6 C32 6.66 32 7.32 32 8 C20.78 8 9.56 8 -2 8 C-1 3 -1 3 0 0 Z " fill="#C8CACB" transform="translate(261,330)"/>
<path d="M0 0 C2.70819203 2.35327912 3.77611205 4.49886787 4.97265625 7.859375 C5.31490234 8.81070313 5.65714844 9.76203125 6.00976562 10.7421875 C6.35716797 11.73476562 6.70457031 12.72734375 7.0625 13.75 C7.41376953 14.72710937 7.76503906 15.70421875 8.12695312 16.7109375 C9.92941994 21.76738506 11.60284169 26.81675986 13 32 C10.39452938 30.69726469 10.34271163 29.73147597 9.37890625 27.02734375 C9.08306641 26.20943359 8.78722656 25.39152344 8.48242188 24.54882812 C8.17884766 23.68708984 7.87527344 22.82535156 7.5625 21.9375 C6.95981354 20.25905061 6.3569506 18.58066458 5.75390625 16.90234375 C5.46273926 16.08491699 5.17157227 15.26749023 4.87158203 14.42529297 C3.61766315 10.93609685 2.31105808 7.46808942 1 4 C0.01 4.66 -0.98 5.32 -2 6 C-1.125 1.125 -1.125 1.125 0 0 Z " fill="#7B7D82" transform="translate(174,219)"/>
<path d="M0 0 C3 4 3 4 5 13 C-4.24 13.33 -13.48 13.66 -23 14 C-23 13.34 -23 12.68 -23 12 C-10.625 11.505 -10.625 11.505 2 11 C1.34 7.37 0.68 3.74 0 0 Z " fill="#777A80" transform="translate(354,259)"/>
<path d="M0 0 C3.4865065 2.32433767 3.86599377 3.52250506 5.25 7.375 C5.60578125 8.33148438 5.9615625 9.28796875 6.328125 10.2734375 C7.0100165 13.04064834 6.9732027 14.36736194 6 17 C5.32942113 15.2097939 4.6636531 13.41778511 4 11.625 C3.62875 10.62726563 3.2575 9.62953125 2.875 8.6015625 C2 6 2 6 2 4 C1.01 4.33 0.02 4.66 -1 5 C-0.67 3.35 -0.34 1.7 0 0 Z " fill="#787B82" transform="translate(338,219)"/>
<path d="M0 0 C2.77704031 1.38852015 3.03382737 2.96788482 4.1875 5.8125 C4.55230469 6.68519531 4.91710937 7.55789062 5.29296875 8.45703125 C6.04115271 11.14801336 5.9458895 12.415372 5 15 C4.16260219 12.8765984 3.33019717 10.7512272 2.5 8.625 C1.80390625 6.84996094 1.80390625 6.84996094 1.09375 5.0390625 C0 2 0 2 0 0 Z " fill="#73757B" transform="translate(213,232)"/>
</svg>
